<svg version="1.1" id="Layer_1" xmlns="http://www.w3.org/2000/svg" xmlns:xlink="http://www.w3.org/1999/xlink" x="0px" y="0px"
	 width="100%" viewBox="0 0 1280 878" enable-background="new 0 0 1280 878" xml:space="preserve">
<path fill="#000000" opacity="1.000000" stroke="none" 
	d="
M420.000000,879.000000 
	C280.357697,879.000000 140.715393,879.000000 1.036550,879.000000 
	C1.036550,586.408752 1.036550,293.817535 1.036550,1.000000 
	C370.026825,1.000000 739.053711,1.000000 1108.892822,1.295884 
	C1107.284424,2.759433 1104.826538,3.856366 1102.450073,5.107694 
	C1094.534058,9.275780 1092.256470,14.915322 1094.785400,23.048000 
	C1093.007446,24.162729 1091.345459,25.044064 1090.200806,26.371548 
	C1083.712891,33.896271 1077.325806,41.508419 1070.947754,49.127281 
	C1060.105225,62.079357 1049.325928,75.084564 1038.461914,88.018578 
	C1028.767578,99.560158 1018.961975,111.008263 1009.265625,122.548210 
	C999.679504,133.957108 990.181274,145.439774 980.621765,156.871063 
	C970.636963,168.811035 960.657654,180.755875 950.612244,192.644806 
	C944.853271,199.460632 938.967773,206.169586 933.090271,212.501160 
	C931.332031,201.228012 929.622803,190.380402 927.913574,179.532791 
	C927.156494,179.613174 926.399414,179.693542 925.642334,179.773911 
	C926.150757,193.186234 926.659119,206.598557 927.117249,220.377167 
	C927.017334,221.480270 926.967712,222.217087 926.576660,222.998077 
	C924.476318,224.716980 922.579590,226.270599 920.982788,228.087723 
	C914.598145,235.353302 908.306702,242.700729 901.900635,249.612213 
	C901.142700,242.262680 900.429077,235.322098 899.794067,228.374344 
	C897.843018,207.028061 895.934631,185.677856 893.981506,164.331757 
	C893.419495,158.189423 892.761719,152.055847 892.164734,146.087662 
	C890.828552,146.087662 890.467590,145.999481 890.172302,146.101425 
	C887.499695,147.023911 884.856018,148.032516 882.171326,148.917068 
	C865.250183,154.492157 848.075684,157.953064 830.233093,154.247238 
	C809.724426,149.987656 791.083496,141.177017 774.036499,129.306305 
	C764.695557,122.801704 756.390747,114.809074 746.716736,106.734604 
	C745.631653,108.115631 744.356567,110.086678 742.747925,111.731522 
	C727.935181,126.877914 711.374390,139.660858 691.597534,147.636475 
	C669.678345,156.476044 647.162720,159.995987 623.835266,153.492340 
	C603.120911,147.717194 584.823547,137.386398 568.343933,123.785606 
	C560.695801,117.473518 553.486267,110.630058 546.247498,104.178688 
	C537.868286,111.572670 529.972412,119.239983 521.370422,126.010208 
	C483.094666,156.135498 441.340759,165.175186 395.211548,145.898300 
	C391.606750,144.391891 388.077209,142.705368 383.959808,140.853943 
	C382.592896,154.743042 381.302185,167.954376 379.989929,181.163574 
	C378.790894,193.232712 377.616882,205.304626 376.343628,217.366013 
	C374.916168,230.888336 373.389679,244.400208 371.649231,257.725647 
	C367.574829,252.840439 363.936676,247.984375 359.887024,243.499924 
	C356.212555,239.430893 352.089935,235.766541 348.124695,231.560913 
	C348.011963,230.470612 347.939423,229.743210 347.916870,228.554428 
	C348.286438,217.480011 348.768860,206.867752 348.820312,196.253403 
	C348.834625,193.300507 347.572845,190.341431 346.896484,187.385193 
	C346.432373,187.495636 345.968292,187.606079 345.504181,187.716522 
	C343.989380,198.802887 342.474579,209.889252 340.659302,220.830292 
	C327.558624,205.922226 314.735229,191.179459 301.966400,176.389603 
	C293.740662,166.861862 285.588135,157.270844 277.415100,147.697678 
	C266.233521,134.600540 255.067902,121.489754 243.887222,108.391853 
	C236.470001,99.702766 229.092606,90.978828 221.597534,82.357285 
	C214.439636,74.123589 207.152496,66.002258 200.031891,57.474388 
	C203.175858,51.257214 202.714767,47.030266 198.562195,42.638004 
	C189.276154,32.815956 166.798721,33.022083 157.621353,43.013451 
	C153.240082,47.783329 152.847061,53.518375 157.377609,58.137257 
	C160.073975,60.886189 163.775604,62.649048 167.019440,65.312248 
	C168.792786,78.367683 170.422913,90.989357 172.385544,103.559120 
	C175.470779,123.318558 178.784515,143.042282 181.993134,162.782486 
	C184.909515,180.724869 187.793701,198.672546 190.731461,216.611420 
	C193.109253,231.130920 195.625473,245.628128 197.935776,260.158173 
	C200.816650,278.276672 203.483887,296.429138 206.363449,314.547852 
	C209.502136,334.296997 212.784454,354.023254 215.992691,373.761383 
	C218.909195,391.704651 221.803970,409.651489 224.720016,427.594849 
	C227.795914,446.521759 230.948196,465.436554 233.951187,484.375000 
	C236.798462,502.331390 239.424545,520.322876 242.278931,538.278137 
	C245.107056,556.068054 248.040680,573.841980 251.077148,591.597412 
	C251.573105,594.497620 252.839706,597.266052 253.782089,600.537781 
	C253.613220,604.956299 253.412415,608.932434 253.129730,613.350281 
	C252.581161,621.493652 252.114441,629.195251 251.647720,636.896912 
	C252.270844,636.931885 252.893967,636.966858 253.517090,637.001831 
	C253.720047,630.699036 253.922989,624.396301 254.501526,618.161743 
	C255.228439,618.745850 255.813019,619.226624 255.897003,619.782898 
	C257.991852,633.658569 259.887054,647.565796 262.116791,661.419312 
	C266.340851,687.663696 270.751465,713.878113 275.104797,740.165283 
	C275.125000,740.225525 275.154083,740.350403 274.734070,740.318298 
	C270.196075,740.192505 266.078064,740.098755 261.969025,739.593445 
	C257.970398,720.134705 253.962830,701.087585 249.955246,682.040405 
	C246.812012,702.013794 251.117722,721.072327 256.051849,740.441162 
	C255.142838,741.244324 254.359146,741.939941 253.518875,742.016846 
	C246.009155,742.703735 238.498215,743.484131 230.969162,743.809082 
	C226.995285,743.980652 222.984711,743.302124 219.149628,742.622314 
	C219.528030,737.766846 219.615372,733.284790 220.007126,728.829468 
	C220.344742,724.989441 219.257339,721.917053 216.971664,718.729980 
	C207.080154,704.937561 200.262375,689.583984 195.923828,673.254395 
	C191.809860,657.770081 188.458511,642.083130 184.771774,626.485229 
	C185.152740,628.345032 184.921661,630.363953 185.189835,632.314148 
	C187.085236,646.098511 188.927780,659.893188 191.091599,673.636597 
	C193.290146,687.600769 195.991653,701.405090 204.256821,713.454285 
	C208.989029,720.353088 214.540970,735.886841 215.289734,743.427673 
	C213.466644,744.165894 211.954041,744.808533 210.386261,745.000549 
	C205.150436,745.641602 199.897476,746.148132 194.646347,746.657349 
	C182.991379,747.787842 171.339035,748.956116 159.668716,749.899902 
	C158.467606,749.997070 157.152313,748.682312 155.930206,747.554688 
	C155.980286,745.755615 155.847366,744.405457 156.023651,743.096924 
	C157.051666,735.466248 154.890594,728.929138 150.308563,722.721985 
	C147.083649,718.353394 144.668015,713.321411 142.321960,708.380981 
	C129.109497,680.557556 125.240158,650.755920 123.915398,620.423706 
	C123.781776,617.364014 123.200630,614.323914 122.827164,611.274719 
	C120.762611,636.871094 121.804657,665.022400 127.295265,690.122131 
	C131.569092,709.659546 137.806671,728.767334 143.185074,748.407349 
	C143.623230,750.092468 144.047806,751.436340 144.638596,753.306213 
	C138.411423,754.134827 132.635590,754.903381 126.859749,755.671936 
	C128.166611,756.710571 129.383209,756.852051 130.600403,756.857422 
	C144.099640,756.917053 157.599365,756.906555 171.098236,757.009399 
	C206.742355,757.281006 242.386124,757.599304 278.494049,757.953613 
	C292.586487,758.259033 306.213898,758.620605 319.843475,758.741333 
	C371.563660,759.199280 423.284515,759.579346 475.409882,760.065796 
	C477.177673,760.249756 478.540741,760.356445 480.050354,760.781250 
	C480.765961,761.390625 481.315918,761.888428 481.906708,761.942932 
	C496.869904,763.323608 511.838928,764.641357 526.802368,766.019104 
	C528.875610,766.209961 530.925232,766.656738 532.539795,767.020264 
	C511.515289,767.986206 490.939026,768.968933 470.357819,769.834595 
	C445.291351,770.888916 420.222473,771.890686 395.151489,772.831421 
	C364.760803,773.971863 334.365875,775.000244 303.974884,776.132080 
	C296.342255,776.416321 288.717438,776.910278 280.626556,777.231812 
	C262.255646,777.862854 244.347244,778.570007 226.438843,779.277100 
	C226.436676,779.527039 226.434525,779.776917 226.432373,780.026794 
	C245.000977,780.902466 263.569611,781.778198 282.122192,782.722290 
	C282.106171,782.790710 282.063660,782.924683 282.045166,783.345642 
	C282.149841,784.750488 282.369873,785.733337 282.380188,786.718445 
	C282.437775,792.216248 285.396576,793.313232 290.445282,793.135010 
	C297.381622,792.890076 304.350922,793.714905 311.310364,793.961426 
	C331.218536,794.666321 351.128143,795.332642 371.038605,795.970459 
	C382.824097,796.348022 394.611816,796.658203 406.399292,796.970764 
	C419.684845,797.323120 432.970306,797.688904 446.257538,797.967773 
	C464.206512,798.344543 482.158051,798.964172 500.106873,798.913513 
	C544.873413,798.787109 589.639648,798.399597 634.404785,797.992554 
	C651.023743,797.841431 667.640747,797.394043 684.256104,796.981323 
	C692.048889,796.787781 699.834717,796.329773 707.625427,796.037903 
	C726.201233,795.341675 744.782593,794.774414 763.352722,793.952393 
	C773.443665,793.505676 783.519531,792.686890 793.591003,791.893677 
	C794.442200,791.826721 795.208313,790.679443 796.472290,790.004272 
	C805.605957,789.584167 814.281372,789.193909 823.423950,788.878540 
	C847.674805,788.314636 871.460327,787.737854 895.241516,787.016602 
	C912.695251,786.487244 930.144043,785.791138 947.593567,785.129333 
	C975.183228,784.083008 1002.772095,783.016541 1030.360107,781.928711 
	C1038.168701,781.620789 1045.977417,781.278503 1053.779053,780.832458 
	C1081.816528,779.229797 1109.851562,777.586853 1137.886353,775.936340 
	C1149.333618,775.262390 1160.783691,774.618713 1172.221436,773.805664 
	C1194.087891,772.251160 1215.949829,770.627808 1237.807129,768.948792 
	C1250.186646,767.997803 1262.553589,766.879517 1275.009766,765.829529 
	C1252.667114,764.244019 1230.425659,763.170898 1208.297607,760.961487 
	C1183.378052,758.473328 1158.553833,755.014893 1133.710205,751.807068 
	C1131.361938,751.503845 1129.171509,749.977356 1127.181885,748.783081 
	C1144.956299,702.945801 1158.641113,625.854675 1151.584595,611.493286 
	C1151.385986,612.353882 1151.177002,612.951416 1151.117432,613.563416 
	C1149.736206,627.741211 1148.849365,641.986877 1146.893311,656.084351 
	C1143.832397,678.145142 1137.320435,699.241943 1125.372559,718.199524 
	C1119.337402,727.775208 1113.661987,737.059814 1115.597412,749.062256 
	C1104.441284,748.371521 1093.732300,747.702515 1083.042114,746.810303 
	C1080.678467,746.612915 1078.380737,745.625671 1076.298096,744.677856 
	C1076.638794,740.869202 1077.450317,737.210510 1076.655273,733.942627 
	C1075.561646,729.447083 1077.373535,726.906799 1080.240234,723.970703 
	C1088.645142,715.362427 1096.770142,706.257324 1099.851196,694.337952 
	C1103.164429,681.520752 1105.524048,668.441650 1107.901001,655.404175 
	C1109.179199,648.394104 1109.621582,641.231567 1110.441162,634.137878 
	C1110.034302,634.085022 1109.627441,634.032166 1109.220581,633.979309 
	C1107.833740,640.583252 1106.354004,647.169250 1105.076660,653.794312 
	C1100.197998,679.095886 1091.515991,702.756042 1075.509766,723.333008 
	C1074.656494,724.430115 1074.248657,726.067810 1074.117188,727.498291 
	C1073.585327,733.283630 1073.242920,739.086365 1072.415283,744.891479 
	C1067.211182,744.575073 1062.420166,744.284119 1057.634644,743.918152 
	C1045.090942,742.958740 1032.549683,741.966675 1020.004639,740.565674 
	C1020.670471,735.408020 1021.313904,730.668579 1022.012390,725.937195 
	C1024.180908,711.248413 1026.362671,696.561646 1028.553955,681.876221 
	C1030.696533,667.517029 1032.900757,653.166809 1034.996094,638.800720 
	C1036.758057,626.720459 1038.381836,614.620117 1040.162598,602.542725 
	C1040.246094,601.976440 1041.262329,601.547607 1041.884766,601.508911 
	C1042.789307,611.585083 1043.653076,621.207275 1044.516968,630.829407 
	C1045.036987,630.772339 1045.557129,630.715210 1046.077148,630.658081 
	C1044.815918,615.144165 1043.554688,599.630188 1042.574219,583.857178 
	C1043.187378,583.030762 1043.732056,582.494629 1043.820801,581.891479 
	C1045.577271,569.956482 1047.269287,558.012024 1048.998535,546.072998 
	C1051.107056,531.516235 1053.193359,516.956055 1055.371460,502.409668 
	C1057.524658,488.029114 1059.844727,473.673401 1061.973877,459.289368 
	C1064.466675,442.448608 1066.757935,425.577942 1069.272217,408.740479 
	C1072.103149,389.783081 1075.147705,370.857605 1077.983032,351.900848 
	C1080.476807,335.227417 1082.735107,318.518768 1085.234741,301.846283 
	C1088.076782,282.890442 1091.142334,263.968140 1093.980103,245.011703 
	C1097.112183,224.089813 1100.038696,203.137222 1103.159546,182.213623 
	C1106.377441,160.640015 1109.718506,139.084778 1113.011230,117.522346 
	C1115.280884,102.659775 1117.695312,87.817726 1119.794312,72.931160 
	C1121.709595,59.348469 1123.287476,45.718216 1125.356934,31.966379 
	C1129.133789,30.221655 1132.905884,29.091879 1135.935181,26.924011 
	C1143.434937,21.556946 1143.437378,12.843609 1136.056274,7.315851 
	C1133.586304,5.466110 1130.470581,4.494088 1127.735229,2.968322 
	C1127.269165,2.708411 1127.234131,1.675709 1127.000000,1.000005 
	C1178.318970,1.000000 1229.637939,1.000000 1280.978516,1.000000 
	C1280.978516,293.570496 1280.978516,586.140991 1280.978516,879.000000 
	C1125.306641,879.000000 969.613037,879.000000 813.412720,878.580078 
	C814.447937,877.813660 815.984497,877.191284 817.532654,877.161011 
	C854.661316,876.434143 891.793091,875.855164 928.920349,875.065125 
	C952.552917,874.562378 976.182617,873.863892 999.807434,873.070496 
	C1025.921265,872.193481 1052.035156,871.266235 1078.135742,870.067749 
	C1102.728882,868.938416 1127.350098,867.972961 1151.875000,865.928711 
	C1175.533203,863.956726 1199.084961,860.706482 1222.678101,857.971375 
	C1223.557617,857.869385 1224.380615,857.279297 1225.229858,856.916687 
	C1219.642578,856.285461 1214.342041,856.631836 1209.037231,856.889465 
	C1174.479736,858.568237 1139.923950,860.287964 1105.362061,861.875244 
	C1074.608276,863.287781 1043.852295,864.683472 1013.087708,865.828857 
	C989.297668,866.714417 965.494873,867.295105 941.693970,867.843323 
	C908.231750,868.614197 874.768433,869.396118 841.301208,869.868652 
	C800.495117,870.444885 759.684448,870.700989 718.875977,871.116028 
	C717.221252,871.132935 715.568604,871.359436 713.464294,871.385925 
	C706.043701,871.440308 699.074036,871.720764 692.103821,871.733032 
	C656.203796,871.796021 620.303650,871.823730 584.403503,871.792969 
	C568.964966,871.779724 553.526489,871.595276 537.629761,871.365295 
	C512.853149,870.928833 488.534882,870.616333 464.216614,870.302246 
	C434.063965,869.912781 403.909210,869.638123 373.759277,869.095642 
	C348.952118,868.649353 324.146149,868.024963 299.347900,867.224182 
	C269.896484,866.273315 240.449356,865.155396 211.009583,863.894714 
	C198.049744,863.339661 185.107574,862.324280 172.166473,861.391724 
	C153.496658,860.046326 134.835129,858.302551 115.378220,861.583984 
	C117.604149,862.175537 119.138512,862.777344 120.723145,862.973877 
	C134.077118,864.630066 147.401184,866.776123 160.808380,867.705750 
	C194.499619,870.041809 228.219330,872.021301 261.948029,873.743591 
	C282.396912,874.787781 302.881012,875.207275 323.354401,875.689392 
	C347.169708,876.250244 370.990356,876.591553 394.809326,876.986816 
	C401.974182,877.105774 409.143921,876.999329 416.304871,877.214050 
	C417.553314,877.251587 418.769135,878.377014 420.000000,879.000000 
M1059.991455,626.632507 
	C1060.373535,630.222534 1060.755615,633.812561 1061.137817,637.402649 
	C1061.836914,637.325867 1062.535889,637.249084 1063.234985,637.172241 
	C1061.640381,617.097778 1060.045776,597.023315 1058.451050,576.948853 
	C1057.735474,577.002625 1057.019897,577.056458 1056.304199,577.110229 
	C1057.526611,593.311096 1058.749023,609.511902 1059.991455,626.632507 
M239.018555,611.631653 
	C239.018555,601.798279 239.018555,591.964844 239.018555,582.131470 
	C238.812057,582.111511 238.605576,582.091553 238.399078,582.071594 
	C237.481094,599.701294 236.563110,617.330994 235.645142,634.960693 
	C236.328659,635.004944 237.012192,635.049255 237.695724,635.093506 
	C238.134735,627.593140 238.573761,620.092712 239.018555,611.631653 
z"/>
<path fill="#4E575F" opacity="1.000000" stroke="none" 
	d="
M713.914978,871.488220 
	C715.568604,871.359436 717.221252,871.132935 718.875977,871.116028 
	C759.684448,870.700989 800.495117,870.444885 841.301208,869.868652 
	C874.768433,869.396118 908.231750,868.614197 941.693970,867.843323 
	C965.494873,867.295105 989.297668,866.714417 1013.087708,865.828857 
	C1043.852295,864.683472 1074.608276,863.287781 1105.362061,861.875244 
	C1139.923950,860.287964 1174.479736,858.568237 1209.037231,856.889465 
	C1214.342041,856.631836 1219.642578,856.285461 1225.229858,856.916687 
	C1224.380615,857.279297 1223.557617,857.869385 1222.678101,857.971375 
	C1199.084961,860.706482 1175.533203,863.956726 1151.875000,865.928711 
	C1127.350098,867.972961 1102.728882,868.938416 1078.135742,870.067749 
	C1052.035156,871.266235 1025.921265,872.193481 999.807434,873.070496 
	C976.182617,873.863892 952.552917,874.562378 928.920349,875.065125 
	C891.793091,875.855164 854.661316,876.434143 817.532654,877.161011 
	C815.984497,877.191284 814.447937,877.813660 812.953003,878.580078 
	C682.312439,879.000000 551.624878,879.000000 420.468658,879.000000 
	C418.769135,878.377014 417.553314,877.251587 416.304871,877.214050 
	C409.143921,876.999329 401.974182,877.105774 394.809326,876.986816 
	C370.990356,876.591553 347.169708,876.250244 323.354401,875.689392 
	C302.881012,875.207275 282.396912,874.787781 261.948029,873.743591 
	C228.219330,872.021301 194.499619,870.041809 160.808380,867.705750 
	C147.401184,866.776123 134.077118,864.630066 120.723145,862.973877 
	C119.138512,862.777344 117.604149,862.175537 115.378220,861.583984 
	C134.835129,858.302551 153.496658,860.046326 172.166473,861.391724 
	C185.107574,862.324280 198.049744,863.339661 211.009583,863.894714 
	C240.449356,865.155396 269.896484,866.273315 299.347900,867.224182 
	C324.146149,868.024963 348.952118,868.649353 373.759277,869.095642 
	C403.909210,869.638123 434.063965,869.912781 464.216614,870.302246 
	C488.534882,870.616333 512.853149,870.928833 537.757324,871.708130 
	C539.582092,872.448547 540.820740,872.961914 542.059753,872.962830 
	C597.931885,873.002563 653.803955,873.008423 709.676025,872.934143 
	C711.089661,872.932251 712.502014,871.991211 713.914978,871.488220 
z"/>
<path fill="#FCFCFC" opacity="1.000000" stroke="none" 
	d="
M1126.531982,1.000005 
	C1127.234131,1.675709 1127.269165,2.708411 1127.735229,2.968322 
	C1130.470581,4.494088 1133.586304,5.466110 1136.056274,7.315851 
	C1143.437378,12.843609 1143.434937,21.556946 1135.935181,26.924011 
	C1132.905884,29.091879 1129.133789,30.221655 1124.944336,31.919109 
	C1113.154785,33.381073 1102.944580,32.086376 1095.140381,23.020618 
	C1092.256470,14.915322 1094.534058,9.275780 1102.450073,5.107694 
	C1104.826538,3.856366 1107.284424,2.759433 1109.352539,1.295884 
	C1114.687988,1.000000 1120.376099,1.000000 1126.531982,1.000005 
z"/>
<path fill="#2E4D6A" opacity="1.000000" stroke="none" 
	d="
M371.906250,257.916626 
	C373.389679,244.400208 374.916168,230.888336 376.343628,217.366013 
	C377.616882,205.304626 378.790894,193.232712 379.989929,181.163574 
	C381.302185,167.954376 382.592896,154.743042 383.959808,140.853943 
	C388.077209,142.705368 391.606750,144.391891 395.211548,145.898300 
	C441.340759,165.175186 483.094666,156.135498 521.370422,126.010208 
	C529.972412,119.239983 537.868286,111.572670 546.247498,104.178688 
	C553.486267,110.630058 560.695801,117.473518 568.343933,123.785606 
	C584.823547,137.386398 603.120911,147.717194 623.835266,153.492340 
	C647.162720,159.995987 669.678345,156.476044 691.597534,147.636475 
	C711.374390,139.660858 727.935181,126.877914 742.747925,111.731522 
	C744.356567,110.086678 745.631653,108.115631 746.716736,106.734604 
	C756.390747,114.809074 764.695557,122.801704 774.036499,129.306305 
	C791.083496,141.177017 809.724426,149.987656 830.233093,154.247238 
	C848.075684,157.953064 865.250183,154.492157 882.171326,148.917068 
	C884.856018,148.032516 887.499695,147.023911 890.172302,146.101425 
	C890.467590,145.999481 890.828552,146.087662 892.164734,146.087662 
	C892.761719,152.055847 893.419495,158.189423 893.981506,164.331757 
	C895.934631,185.677856 897.843018,207.028061 899.794067,228.374344 
	C900.429077,235.322098 901.142700,242.262680 901.882019,249.947876 
	C901.922607,251.136795 901.901550,251.584381 901.554688,252.074677 
	C896.574097,257.488037 891.876221,262.821930 887.272888,268.236237 
	C874.061707,283.774689 860.828796,299.295319 847.716736,314.917236 
	C832.903992,332.565369 818.242188,350.340179 803.461365,368.015228 
	C788.679810,385.691132 773.832397,403.311859 758.660095,421.012817 
	C754.912109,422.763031 751.270813,424.101685 748.187805,426.243774 
	C744.569275,428.757935 740.421936,431.373596 738.289734,434.996307 
	C732.773438,444.368591 728.238708,454.318665 722.966003,464.137634 
	C718.738342,468.835907 714.856750,473.434570 710.664917,477.858063 
	C708.379578,474.785889 707.012024,470.678375 704.273010,469.303833 
	C700.980225,467.651459 699.345276,465.697937 697.660461,462.683044 
	C696.493469,460.594879 693.620544,458.518646 691.267944,458.194946 
	C680.173096,456.668427 670.180908,463.294098 666.493469,473.940491 
	C666.064148,475.179901 665.617798,476.459167 664.916016,477.550659 
	C661.626953,482.665497 665.509705,490.570404 671.295898,492.065948 
	C676.072510,493.300598 680.470215,496.001404 685.503601,498.262695 
	C683.335815,501.101227 682.372742,503.163879 679.086792,500.804382 
	C674.521484,497.526154 669.468201,494.937164 664.733582,491.882965 
	C657.359436,487.126038 649.798950,482.592773 642.826843,477.294281 
	C634.010010,470.593842 626.792236,461.982483 616.559998,456.891754 
	C604.455322,450.869476 595.050537,439.189606 579.586792,440.294525 
	C574.543396,440.654907 569.395142,439.547699 564.294800,439.111694 
	C564.223938,439.534119 564.153015,439.956543 564.082092,440.378967 
	C565.113220,441.095764 566.144287,441.812561 567.166260,442.523010 
	C565.747375,443.101532 564.310852,443.687225 562.874329,444.272949 
	C565.807129,445.030670 568.541748,445.259521 571.072144,444.645874 
	C573.875000,443.966125 576.158569,443.543335 577.548340,446.569305 
	C575.832581,448.084167 574.291199,449.445068 572.749878,450.805969 
	C573.050293,451.238922 573.350708,451.671906 573.651123,452.104858 
	C574.886597,451.550812 576.085876,450.888489 577.363647,450.460785 
	C584.075195,448.214233 590.785645,446.095459 596.666138,452.402130 
	C597.797852,453.615875 599.088745,454.684174 600.332031,455.790558 
	C616.335083,470.031555 632.341980,484.268280 648.354980,498.498108 
	C648.725220,498.827087 649.209778,499.026001 649.586914,499.348694 
	C658.680847,507.128967 668.466492,514.446533 668.677368,528.231873 
	C664.605957,533.286072 660.797607,538.149841 656.522705,543.037231 
	C643.046509,545.740051 632.267639,539.350586 622.230835,533.111328 
	C613.401306,527.622559 605.499146,520.847900 595.049438,518.968445 
	C591.533081,514.040344 587.937256,509.171051 584.020081,504.575592 
	C574.882874,493.856293 565.554077,483.300629 556.372620,472.618744 
	C547.196411,461.942963 538.140015,451.164246 528.966736,440.485901 
	C519.788391,429.801697 510.491547,419.219208 501.317230,408.531555 
	C490.205841,395.587250 479.187256,382.563293 468.092194,369.604889 
	C461.194702,361.549011 454.199890,353.576447 447.302094,345.520844 
	C436.206482,332.562714 425.154297,319.567352 414.084991,306.586700 
	C404.950623,295.875061 395.903503,285.087402 386.648621,274.480957 
	C382.009613,269.164490 376.993469,264.177063 372.088257,258.759613 
	C371.987823,258.291138 371.947021,258.103882 371.906250,257.916626 
z"/>
<path fill="#181818" opacity="1.000000" stroke="none" 
	d="
M901.880554,252.031952 
	C901.901550,251.584381 901.922607,251.136795 901.962158,250.353546 
	C908.306702,242.700729 914.598145,235.353302 920.982788,228.087723 
	C922.579590,226.270599 924.476318,224.716980 926.636780,223.426331 
	C928.350891,240.009537 929.649597,256.209778 930.980225,272.407410 
	C932.025879,285.135315 932.913818,297.880341 934.226990,310.581024 
	C935.964966,327.391052 938.056458,344.164429 939.982849,360.955109 
	C941.739563,376.267548 943.253845,391.611969 945.284729,406.887787 
	C947.598511,424.290955 950.452942,441.621490 952.917358,459.005585 
	C957.250977,489.574646 963.169067,519.816956 971.433472,549.574585 
	C973.367126,556.537170 975.732971,563.379639 977.900024,570.277405 
	C978.899536,568.461609 978.821960,566.896362 978.604370,565.350830 
	C976.410217,549.766602 974.199036,534.184753 971.981201,518.603821 
	C969.483215,501.055420 966.904724,483.518158 964.488953,465.958466 
	C962.231079,449.546295 960.059143,433.121307 958.000488,416.683044 
	C956.126465,401.719269 954.466431,386.728790 952.692444,371.752350 
	C950.802124,355.793762 948.853821,339.841980 946.996704,323.879578 
	C945.521912,311.203033 944.217773,298.506439 942.708130,285.834198 
	C940.866028,270.371918 938.973877,254.914520 936.935242,239.477219 
	C935.809387,230.951691 934.339417,222.471588 933.044189,213.708939 
	C933.088989,213.273468 933.114136,213.100067 933.139282,212.926682 
	C938.967773,206.169586 944.853271,199.460632 950.612244,192.644806 
	C960.657654,180.755875 970.636963,168.811035 980.621765,156.871063 
	C990.181274,145.439774 999.679504,133.957108 1009.265625,122.548210 
	C1018.961975,111.008263 1028.767578,99.560158 1038.461914,88.018578 
	C1049.325928,75.084564 1060.105225,62.079357 1070.947754,49.127281 
	C1077.325806,41.508419 1083.712891,33.896271 1090.200806,26.371548 
	C1091.345459,25.044064 1093.007446,24.162729 1094.785400,23.048000 
	C1102.944580,32.086376 1113.154785,33.381073 1124.601562,32.061668 
	C1123.287476,45.718216 1121.709595,59.348469 1119.794312,72.931160 
	C1117.695312,87.817726 1115.280884,102.659775 1113.011230,117.522346 
	C1109.718506,139.084778 1106.377441,160.640015 1103.159546,182.213623 
	C1100.038696,203.137222 1097.112183,224.089813 1093.980103,245.011703 
	C1091.142334,263.968140 1088.076782,282.890442 1085.234741,301.846283 
	C1082.735107,318.518768 1080.476807,335.227417 1077.983032,351.900848 
	C1075.147705,370.857605 1072.103149,389.783081 1069.272217,408.740479 
	C1066.757935,425.577942 1064.466675,442.448608 1061.973877,459.289368 
	C1059.844727,473.673401 1057.524658,488.029114 1055.371460,502.409668 
	C1053.193359,516.956055 1051.107056,531.516235 1048.998535,546.072998 
	C1047.269287,558.012024 1045.577271,569.956482 1043.820801,581.891479 
	C1043.732056,582.494629 1043.187378,583.030762 1042.477539,583.416626 
	C1041.442505,577.819031 1040.784912,572.402893 1040.127441,566.986816 
	C1039.621216,567.049194 1039.115112,567.111572 1038.608887,567.173889 
	C1039.687378,578.467529 1040.765869,589.761169 1041.844238,601.054810 
	C1041.262329,601.547607 1040.246094,601.976440 1040.162598,602.542725 
	C1038.381836,614.620117 1036.758057,626.720459 1034.996094,638.800720 
	C1032.900757,653.166809 1030.696533,667.517029 1028.553955,681.876221 
	C1026.362671,696.561646 1024.180908,711.248413 1022.012390,725.937195 
	C1021.313904,730.668579 1020.670471,735.408020 1019.736328,740.599243 
	C1019.294250,741.090881 1019.117737,741.127014 1018.501221,741.118958 
	C1015.043457,740.715942 1012.025635,740.356995 1009.148865,739.648987 
	C1012.400330,727.424011 1015.744202,715.603394 1018.570496,703.660278 
	C1023.690674,682.023315 1029.193726,660.388123 1027.905640,637.858215 
	C1027.205200,625.607971 1025.972290,613.389099 1025.076782,601.148926 
	C1023.696838,582.285706 1022.478882,563.410339 1021.049744,544.550964 
	C1019.119751,519.080933 1017.150024,493.613129 1015.019104,468.159302 
	C1013.165649,446.020416 1011.201233,423.888824 1009.037170,401.778381 
	C1006.469971,375.549896 1003.656921,349.345306 1000.889465,323.136810 
	C1000.583984,320.244019 999.878967,317.393433 999.359253,314.523254 
	C998.901672,314.576874 998.444153,314.630493 997.986572,314.684082 
	C997.986572,316.451141 997.952698,318.218933 997.991882,319.985107 
	C998.301331,333.950317 998.425049,347.923279 998.991455,361.878235 
	C999.799622,381.787048 1000.848755,401.687347 1001.953857,421.582458 
	C1003.196533,443.954926 1004.587891,466.319275 1005.967773,488.683868 
	C1006.907959,503.921875 1007.915344,519.155884 1008.935730,534.388733 
	C1010.588074,559.056519 1013.332275,583.706909 1013.683655,608.392151 
	C1014.131653,639.863159 1017.127502,671.588135 1008.145264,702.632507 
	C1004.700500,714.538208 1002.634583,726.842834 999.527039,738.999878 
	C992.661377,738.713867 986.209045,738.393677 979.847534,737.667236 
	C990.705322,687.979553 995.180176,638.160889 993.139587,587.782043 
	C988.031433,638.042664 982.052551,688.163452 972.349121,737.905151 
	C967.778503,737.940125 963.630188,738.230835 959.548889,737.833557 
	C951.935730,737.092590 944.361389,735.951721 936.843750,734.546997 
	C937.702698,727.352722 938.437805,720.582275 939.284241,713.825806 
	C942.152710,690.928467 945.080627,668.038513 947.947632,645.140991 
	C950.587830,624.055420 953.372986,602.984924 955.679565,581.862427 
	C956.424805,575.038635 957.611938,567.507751 955.606079,561.260559 
	C941.696655,517.939270 932.392883,473.586761 925.108337,428.799316 
	C919.779236,396.034180 915.250916,363.130035 910.904968,330.216644 
	C907.471191,304.211273 904.858093,278.097565 901.880554,252.031952 
z"/>
<path fill="#191919" opacity="1.000000" stroke="none" 
	d="
M371.649231,257.725647 
	C371.947021,258.103882 371.987823,258.291138 372.034729,259.190857 
	C370.041382,278.235931 368.069489,296.571594 366.035309,314.900360 
	C363.634644,336.531158 361.387756,358.181915 358.693298,379.776489 
	C355.711761,403.671875 352.698395,427.576080 348.969055,451.362030 
	C344.725891,478.425323 340.051971,505.435974 334.776489,532.314636 
	C332.876587,541.994812 329.182129,551.437988 325.274078,560.546265 
	C323.911194,563.722717 322.755707,566.401062 323.180359,569.775757 
	C326.436066,595.648926 329.711334,621.519836 332.896790,647.401672 
	C336.447571,676.251587 339.910065,705.112244 343.255829,734.358032 
	C342.890106,734.998901 342.701599,735.446411 342.465759,735.472900 
	C329.122162,736.971619 315.781372,738.507019 302.414276,739.761719 
	C301.378815,739.858948 300.156067,737.960571 299.018372,736.565796 
	C297.519257,727.490051 295.987091,718.844055 294.532379,710.185059 
	C291.677734,693.193237 287.855865,676.285156 286.314423,659.173096 
	C284.696381,641.210693 285.016266,623.050354 284.980316,604.975525 
	C284.946869,588.176208 285.565033,571.375610 285.887695,554.575500 
	C286.229553,536.776672 286.575714,518.978027 286.893494,501.178864 
	C287.241058,481.713409 287.676300,462.248505 287.856537,442.781342 
	C288.047791,422.123932 288.138306,401.463043 287.987823,380.805756 
	C287.844818,361.173401 287.353424,341.543365 286.948547,321.913666 
	C286.913940,320.235901 286.377808,318.568451 286.074707,316.896210 
	C283.929810,338.841339 282.430237,360.654694 281.073608,382.476929 
	C279.992004,399.875336 278.989777,417.279907 278.123901,434.690277 
	C277.018158,456.923615 276.056274,479.164276 275.087067,501.404175 
	C274.378143,517.671936 273.702911,533.941650 273.111206,550.213989 
	C272.386322,570.147949 272.092316,590.103210 271.022675,610.017578 
	C269.320923,641.700867 273.488586,672.630066 281.520935,703.193237 
	C284.638855,715.057068 287.245544,727.055359 289.650208,739.021118 
	C284.505035,739.401611 279.794830,739.753296 275.084595,740.104980 
	C270.751465,713.878113 266.340851,687.663696 262.116791,661.419312 
	C259.887054,647.565796 257.991852,633.658569 255.897003,619.782898 
	C255.813019,619.226624 255.228439,618.745850 254.587524,617.796997 
	C254.516785,615.899841 254.735626,614.435669 254.974365,612.546143 
	C256.027374,598.176636 257.060486,584.232422 258.093597,570.288269 
	C257.571686,570.247620 257.049805,570.206970 256.527924,570.166382 
	C255.601990,580.142700 254.676056,590.119080 253.750137,600.095398 
	C252.839706,597.266052 251.573105,594.497620 251.077148,591.597412 
	C248.040680,573.841980 245.107056,556.068054 242.278931,538.278137 
	C239.424545,520.322876 236.798462,502.331390 233.951187,484.375000 
	C230.948196,465.436554 227.795914,446.521759 224.720016,427.594849 
	C221.803970,409.651489 218.909195,391.704651 215.992691,373.761383 
	C212.784454,354.023254 209.502136,334.296997 206.363449,314.547852 
	C203.483887,296.429138 200.816650,278.276672 197.935776,260.158173 
	C195.625473,245.628128 193.109253,231.130920 190.731461,216.611420 
	C187.793701,198.672546 184.909515,180.724869 181.993134,162.782486 
	C178.784515,143.042282 175.470779,123.318558 172.385544,103.559120 
	C170.422913,90.989357 168.792786,78.367683 167.428314,65.318039 
	C179.622543,67.475700 190.726593,67.004753 199.922165,57.831543 
	C207.152496,66.002258 214.439636,74.123589 221.597534,82.357285 
	C229.092606,90.978828 236.470001,99.702766 243.887222,108.391853 
	C255.067902,121.489754 266.233521,134.600540 277.415100,147.697678 
	C285.588135,157.270844 293.740662,166.861862 301.966400,176.389603 
	C314.735229,191.179459 327.558624,205.922226 340.692688,221.109299 
	C341.050934,221.719177 341.075409,221.904724 341.059418,222.504715 
	C339.690643,233.611832 338.254730,244.292542 337.060944,255.000229 
	C335.535736,268.680786 334.262939,282.389374 332.775848,296.074432 
	C331.253693,310.081726 329.561859,324.070496 328.022461,338.075989 
	C326.554779,351.429047 325.234711,364.798370 323.763611,378.151062 
	C322.238739,391.991699 320.580139,405.817596 319.036102,419.656189 
	C317.565002,432.841187 316.233276,446.041962 314.718414,459.221771 
	C312.882355,475.195251 310.949097,491.157806 309.001007,507.118134 
	C307.153564,522.254028 305.231018,537.380737 303.344849,552.511902 
	C302.543610,558.939270 301.750946,565.367676 300.954376,571.795654 
	C302.173553,570.702515 302.670013,569.491150 302.963409,568.232483 
	C308.537079,544.320129 314.939209,520.560303 319.409943,496.442627 
	C324.209869,470.549072 327.514130,444.359650 330.860016,418.221130 
	C333.428040,398.159515 335.066315,377.978424 337.083893,357.847015 
	C339.382538,334.910919 341.824097,311.987152 343.864227,289.027863 
	C345.553619,270.015900 346.750061,250.960129 348.164886,231.923782 
	C352.089935,235.766541 356.212555,239.430893 359.887024,243.499924 
	C363.936676,247.984375 367.574829,252.840439 371.649231,257.725647 
z"/>
<path fill="#4E5760" opacity="1.000000" stroke="none" 
	d="
M936.770935,734.977295 
	C944.361389,735.951721 951.935730,737.092590 959.548889,737.833557 
	C963.630188,738.230835 967.778503,737.940125 972.795532,737.952026 
	C975.715210,737.987183 977.735962,738.030334 979.756714,738.073486 
	C986.209045,738.393677 992.661377,738.713867 999.901489,739.167603 
	C1003.462158,739.533386 1006.235046,739.765747 1009.007874,739.998108 
	C1012.025635,740.356995 1015.043457,740.715942 1018.526123,741.555359 
	C1018.365295,747.108398 1017.903259,752.210938 1016.983826,757.229614 
	C1016.786438,758.307129 1014.982300,759.811462 1013.837646,759.886292 
	C996.165771,761.041565 978.484314,762.068604 960.797180,762.968689 
	C945.575500,763.743347 930.346924,764.403320 915.115784,764.962708 
	C894.566772,765.717468 874.013489,766.362000 853.460083,766.987122 
	C840.024658,767.395813 826.585510,767.679443 813.148926,768.051270 
	C812.565063,768.067383 811.990112,768.406677 810.791321,768.797363 
	C814.815918,773.353149 818.432190,777.588440 822.213074,781.671265 
	C824.333313,783.960754 825.502197,786.130676 822.956787,788.803711 
	C814.281372,789.193909 805.605957,789.584167 796.005249,789.944885 
	C770.951721,790.232422 746.823364,790.829895 722.695496,790.808533 
	C671.754211,790.763428 620.812622,790.477539 569.872314,790.126892 
	C540.247925,789.922974 510.625092,789.442078 481.002838,789.000854 
	C471.362793,788.857239 461.727264,788.427124 452.088806,788.159119 
	C426.986359,787.460938 401.881226,786.852600 376.781342,786.073792 
	C345.206604,785.094116 313.636017,783.980530 282.063660,782.924683 
	C282.063660,782.924683 282.106171,782.790710 282.074738,782.383179 
	C281.725220,780.419739 281.407135,778.863770 281.089050,777.307861 
	C288.717438,776.910278 296.342255,776.416321 303.974884,776.132080 
	C334.365875,775.000244 364.760803,773.971863 395.151489,772.831421 
	C420.222473,771.890686 445.291351,770.888916 470.357819,769.834595 
	C490.939026,768.968933 511.515289,767.986206 533.000183,767.066528 
	C537.606018,767.053467 541.305481,767.029419 545.300659,767.298950 
	C560.677124,768.058960 575.754944,768.682739 590.839050,768.956421 
	C616.422424,769.420593 642.010193,769.957458 667.595459,769.927795 
	C701.668091,769.888306 735.739990,769.320740 769.812561,769.014038 
	C778.132141,768.939148 786.456909,769.150940 794.771606,768.934021 
	C799.604736,768.807983 804.422424,768.091553 809.694519,767.599060 
	C800.204468,756.425110 791.110291,745.717285 782.483765,735.006104 
	C834.224609,734.994324 885.497742,734.985779 936.770935,734.977295 
z"/>
<path fill="#3C464F" opacity="1.000000" stroke="none" 
	d="
M823.423950,788.878540 
	C825.502197,786.130676 824.333313,783.960754 822.213074,781.671265 
	C818.432190,777.588440 814.815918,773.353149 810.791321,768.797363 
	C811.990112,768.406677 812.565063,768.067383 813.148926,768.051270 
	C826.585510,767.679443 840.024658,767.395813 853.460083,766.987122 
	C874.013489,766.362000 894.566772,765.717468 915.115784,764.962708 
	C930.346924,764.403320 945.575500,763.743347 960.797180,762.968689 
	C978.484314,762.068604 996.165771,761.041565 1013.837646,759.886292 
	C1014.982300,759.811462 1016.786438,758.307129 1016.983826,757.229614 
	C1017.903259,752.210938 1018.365295,747.108398 1018.966064,741.599487 
	C1019.117737,741.127014 1019.294250,741.090881 1019.739136,741.021118 
	C1032.549683,741.966675 1045.090942,742.958740 1057.634644,743.918152 
	C1062.420166,744.284119 1067.211182,744.575073 1072.818359,744.930176 
	C1074.442261,744.974121 1075.247559,744.988159 1076.052734,745.002136 
	C1078.380737,745.625671 1080.678467,746.612915 1083.042114,746.810303 
	C1093.732300,747.702515 1104.441284,748.371521 1116.049561,749.054810 
	C1120.272949,748.998718 1123.590454,749.008789 1126.907837,749.018799 
	C1129.171509,749.977356 1131.361938,751.503845 1133.710205,751.807068 
	C1158.553833,755.014893 1183.378052,758.473328 1208.297607,760.961487 
	C1230.425659,763.170898 1252.667114,764.244019 1275.009766,765.829529 
	C1262.553589,766.879517 1250.186646,767.997803 1237.807129,768.948792 
	C1215.949829,770.627808 1194.087891,772.251160 1172.221436,773.805664 
	C1160.783691,774.618713 1149.333618,775.262390 1137.886353,775.936340 
	C1109.851562,777.586853 1081.816528,779.229797 1053.779053,780.832458 
	C1045.977417,781.278503 1038.168701,781.620789 1030.360107,781.928711 
	C1002.772095,783.016541 975.183228,784.083008 947.593567,785.129333 
	C930.144043,785.791138 912.695251,786.487244 895.241516,787.016602 
	C871.460327,787.737854 847.674805,788.314636 823.423950,788.878540 
z"/>
<path fill="#4F5860" opacity="1.000000" stroke="none" 
	d="
M299.020355,736.989746 
	C300.156067,737.960571 301.378815,739.858948 302.414276,739.761719 
	C315.781372,738.507019 329.122162,736.971619 342.465759,735.472900 
	C342.701599,735.446411 342.890106,734.998901 343.685852,734.372070 
	C394.841064,734.010864 445.411102,734.025513 495.832947,734.336914 
	C488.791565,743.085266 481.898346,751.536865 475.005127,759.988525 
	C423.284515,759.579346 371.563660,759.199280 319.843475,758.741333 
	C306.213898,758.620605 292.586487,758.259033 278.469543,757.551636 
	C277.038696,751.513611 276.096405,745.932007 275.154114,740.350403 
	C275.154083,740.350403 275.125000,740.225525 275.104797,740.165283 
	C279.794830,739.753296 284.505035,739.401611 289.972778,738.843750 
	C293.493652,738.088379 296.256989,737.539062 299.020355,736.989746 
z"/>
<path fill="#60686F" opacity="1.000000" stroke="none" 
	d="
M475.409882,760.065796 
	C481.898346,751.536865 488.791565,743.085266 496.081177,734.322266 
	C496.477509,734.010986 496.974152,733.999146 497.445587,734.003052 
	C505.538910,734.334473 513.160339,734.931091 520.782776,734.944519 
	C561.594116,735.016052 602.405640,734.942261 643.484619,735.114136 
	C649.070496,739.732178 650.818604,745.114746 649.171631,751.995300 
	C648.483093,754.871765 649.409485,758.134888 649.229309,761.489563 
	C647.208679,761.853088 645.559265,762.047607 643.912048,762.030762 
	C611.000061,761.693970 578.088135,761.348816 545.176636,760.964966 
	C537.204529,760.872009 529.234680,760.533630 521.262756,760.486572 
	C507.476837,760.405151 493.690155,760.463440 479.903778,760.463135 
	C478.540741,760.356445 477.177673,760.249756 475.409882,760.065796 
z"/>
<path fill="#191919" opacity="1.000000" stroke="none" 
	d="
M282.045166,783.345642 
	C313.636017,783.980530 345.206604,785.094116 376.781342,786.073792 
	C401.881226,786.852600 426.986359,787.460938 452.088806,788.159119 
	C461.727264,788.427124 471.362793,788.857239 481.002838,789.000854 
	C510.625092,789.442078 540.247925,789.922974 569.872314,790.126892 
	C620.812622,790.477539 671.754211,790.763428 722.695496,790.808533 
	C746.823364,790.829895 770.951721,790.232422 795.546936,789.974731 
	C795.208313,790.679443 794.442200,791.826721 793.591003,791.893677 
	C783.519531,792.686890 773.443665,793.505676 763.352722,793.952393 
	C744.782593,794.774414 726.201233,795.341675 707.625427,796.037903 
	C699.834717,796.329773 692.048889,796.787781 684.256104,796.981323 
	C667.640747,797.394043 651.023743,797.841431 634.404785,797.992554 
	C589.639648,798.399597 544.873413,798.787109 500.106873,798.913513 
	C482.158051,798.964172 464.206512,798.344543 446.257538,797.967773 
	C432.970306,797.688904 419.684845,797.323120 406.399292,796.970764 
	C394.611816,796.658203 382.824097,796.348022 371.038605,795.970459 
	C351.128143,795.332642 331.218536,794.666321 311.310364,793.961426 
	C304.350922,793.714905 297.381622,792.890076 290.445282,793.135010 
	C285.396576,793.313232 282.437775,792.216248 282.380188,786.718445 
	C282.369873,785.733337 282.149841,784.750488 282.045166,783.345642 
z"/>
<path fill="#2F475C" opacity="1.000000" stroke="none" 
	d="
M933.024536,213.971008 
	C934.339417,222.471588 935.809387,230.951691 936.935242,239.477219 
	C938.973877,254.914520 940.866028,270.371918 942.708130,285.834198 
	C944.217773,298.506439 945.521912,311.203033 946.996704,323.879578 
	C948.853821,339.841980 950.802124,355.793762 952.692444,371.752350 
	C954.466431,386.728790 956.126465,401.719269 958.000488,416.683044 
	C960.059143,433.121307 962.231079,449.546295 964.488953,465.958466 
	C966.904724,483.518158 969.483215,501.055420 971.981201,518.603821 
	C974.199036,534.184753 976.410217,549.766602 978.604370,565.350830 
	C978.821960,566.896362 978.899536,568.461609 977.900024,570.277405 
	C975.732971,563.379639 973.367126,556.537170 971.433472,549.574585 
	C963.169067,519.816956 957.250977,489.574646 952.917358,459.005585 
	C950.452942,441.621490 947.598511,424.290955 945.284729,406.887787 
	C943.253845,391.611969 941.739563,376.267548 939.982849,360.955109 
	C938.056458,344.164429 935.964966,327.391052 934.226990,310.581024 
	C932.913818,297.880341 932.025879,285.135315 930.980225,272.407410 
	C929.649597,256.209778 928.350891,240.009537 926.978271,223.382172 
	C926.967712,222.217087 927.017334,221.480270 927.388916,220.211151 
	C929.482056,217.776230 931.253296,215.873627 933.024536,213.971008 
z"/>
<path fill="#30475D" opacity="1.000000" stroke="none" 
	d="
M348.124695,231.560913 
	C346.750061,250.960129 345.553619,270.015900 343.864227,289.027863 
	C341.824097,311.987152 339.382538,334.910919 337.083893,357.847015 
	C335.066315,377.978424 333.428040,398.159515 330.860016,418.221130 
	C327.514130,444.359650 324.209869,470.549072 319.409943,496.442627 
	C314.939209,520.560303 308.537079,544.320129 302.963409,568.232483 
	C302.670013,569.491150 302.173553,570.702515 300.954376,571.795654 
	C301.750946,565.367676 302.543610,558.939270 303.344849,552.511902 
	C305.231018,537.380737 307.153564,522.254028 309.001007,507.118134 
	C310.949097,491.157806 312.882355,475.195251 314.718414,459.221771 
	C316.233276,446.041962 317.565002,432.841187 319.036102,419.656189 
	C320.580139,405.817596 322.238739,391.991699 323.763611,378.151062 
	C325.234711,364.798370 326.554779,351.429047 328.022461,338.075989 
	C329.561859,324.070496 331.253693,310.081726 332.775848,296.074432 
	C334.262939,282.389374 335.535736,268.680786 337.060944,255.000229 
	C338.254730,244.292542 339.690643,233.611832 341.349976,222.639404 
	C343.742950,224.578369 345.804932,226.797089 347.866882,229.015793 
	C347.939423,229.743210 348.011963,230.470612 348.124695,231.560913 
z"/>
<path fill="#3B454E" opacity="1.000000" stroke="none" 
	d="
M274.734070,740.318298 
	C276.096405,745.932007 277.038696,751.513611 278.005524,757.497192 
	C242.386124,757.599304 206.742355,757.281006 171.098236,757.009399 
	C157.599365,756.906555 144.099640,756.917053 130.600403,756.857422 
	C129.383209,756.852051 128.166611,756.710571 126.859749,755.671936 
	C132.635590,754.903381 138.411423,754.134827 144.638596,753.306213 
	C144.047806,751.436340 143.623230,750.092468 143.630753,748.390869 
	C148.005249,748.029663 151.947617,748.026245 155.890015,748.022827 
	C157.152313,748.682312 158.467606,749.997070 159.668716,749.899902 
	C171.339035,748.956116 182.991379,747.787842 194.646347,746.657349 
	C199.897476,746.148132 205.150436,745.641602 210.386261,745.000549 
	C211.954041,744.808533 213.466644,744.165894 215.616821,743.385620 
	C217.149643,743.030151 218.070175,743.018738 218.990707,743.007324 
	C222.984711,743.302124 226.995285,743.980652 230.969162,743.809082 
	C238.498215,743.484131 246.009155,742.703735 253.518875,742.016846 
	C254.359146,741.939941 255.142838,741.244324 256.462769,740.426880 
	C258.635223,740.013733 260.297638,740.009338 261.960083,740.005005 
	C266.078064,740.098755 270.196075,740.192505 274.734070,740.318298 
z"/>
<path fill="#FCFCFC" opacity="1.000000" stroke="none" 
	d="
M200.031891,57.474388 
	C190.726593,67.004753 179.622543,67.475700 167.434174,64.861008 
	C163.775604,62.649048 160.073975,60.886189 157.377609,58.137257 
	C152.847061,53.518375 153.240082,47.783329 157.621353,43.013451 
	C166.798721,33.022083 189.276154,32.815956 198.562195,42.638004 
	C202.714767,47.030266 203.175858,51.257214 200.031891,57.474388 
z"/>
<path fill="#19334B" opacity="1.000000" stroke="none" 
	d="
M155.930191,747.554688 
	C151.947617,748.026245 148.005249,748.029663 143.617188,748.049622 
	C137.806671,728.767334 131.569092,709.659546 127.295265,690.122131 
	C121.804657,665.022400 120.762611,636.871094 122.827164,611.274719 
	C123.200630,614.323914 123.781776,617.364014 123.915398,620.423706 
	C125.240158,650.755920 129.109497,680.557556 142.321960,708.380981 
	C144.668015,713.321411 147.083649,718.353394 150.308563,722.721985 
	C154.890594,728.929138 157.051666,735.466248 156.023651,743.096924 
	C155.847366,744.405457 155.980286,745.755615 155.930191,747.554688 
z"/>
<path fill="#19334B" opacity="1.000000" stroke="none" 
	d="
M1127.181885,748.783081 
	C1123.590454,749.008789 1120.272949,748.998718 1116.503418,748.996155 
	C1113.661987,737.059814 1119.337402,727.775208 1125.372559,718.199524 
	C1137.320435,699.241943 1143.832397,678.145142 1146.893311,656.084351 
	C1148.849365,641.986877 1149.736206,627.741211 1151.117432,613.563416 
	C1151.177002,612.951416 1151.385986,612.353882 1151.584595,611.493286 
	C1158.641113,625.854675 1144.956299,702.945801 1127.181885,748.783081 
z"/>
<path fill="#191919" opacity="1.000000" stroke="none" 
	d="
M480.050354,760.781250 
	C493.690155,760.463440 507.476837,760.405151 521.262756,760.486572 
	C529.234680,760.533630 537.204529,760.872009 545.176636,760.964966 
	C578.088135,761.348816 611.000061,761.693970 643.912048,762.030762 
	C645.559265,762.047607 647.208679,761.853088 649.329346,761.619690 
	C649.871033,761.824646 649.940491,762.166931 649.547668,762.597778 
	C614.391907,764.126099 579.698364,765.565735 545.004883,767.005371 
	C541.305481,767.029419 537.606018,767.053467 533.446167,767.031311 
	C530.925232,766.656738 528.875610,766.209961 526.802368,766.019104 
	C511.838928,764.641357 496.869904,763.323608 481.906708,761.942932 
	C481.315918,761.888428 480.765961,761.390625 480.050354,760.781250 
z"/>
<path fill="#19334B" opacity="1.000000" stroke="none" 
	d="
M219.149628,742.622314 
	C218.070175,743.018738 217.149643,743.030151 215.902008,743.083618 
	C214.540970,735.886841 208.989029,720.353088 204.256821,713.454285 
	C195.991653,701.405090 193.290146,687.600769 191.091599,673.636597 
	C188.927780,659.893188 187.085236,646.098511 185.189835,632.314148 
	C184.921661,630.363953 185.152740,628.345032 184.771774,626.485229 
	C188.458511,642.083130 191.809860,657.770081 195.923828,673.254395 
	C200.262375,689.583984 207.080154,704.937561 216.971664,718.729980 
	C219.257339,721.917053 220.344742,724.989441 220.007126,728.829468 
	C219.615372,733.284790 219.528030,737.766846 219.149628,742.622314 
z"/>
<path fill="#19334B" opacity="1.000000" stroke="none" 
	d="
M1076.298096,744.677856 
	C1075.247559,744.988159 1074.442261,744.974121 1073.233887,744.921387 
	C1073.242920,739.086365 1073.585327,733.283630 1074.117188,727.498291 
	C1074.248657,726.067810 1074.656494,724.430115 1075.509766,723.333008 
	C1091.515991,702.756042 1100.197998,679.095886 1105.076660,653.794312 
	C1106.354004,647.169250 1107.833740,640.583252 1109.220581,633.979309 
	C1109.627441,634.032166 1110.034302,634.085022 1110.441162,634.137878 
	C1109.621582,641.231567 1109.179199,648.394104 1107.901001,655.404175 
	C1105.524048,668.441650 1103.164429,681.520752 1099.851196,694.337952 
	C1096.770142,706.257324 1088.645142,715.362427 1080.240234,723.970703 
	C1077.373535,726.906799 1075.561646,729.447083 1076.655273,733.942627 
	C1077.450317,737.210510 1076.638794,740.869202 1076.298096,744.677856 
z"/>
<path fill="#19334B" opacity="1.000000" stroke="none" 
	d="
M261.969025,739.593384 
	C260.297638,740.009338 258.635223,740.013733 256.561859,740.032349 
	C251.117722,721.072327 246.812012,702.013794 249.955246,682.040405 
	C253.962830,701.087585 257.970398,720.134705 261.969025,739.593384 
z"/>
<path fill="#19334B" opacity="1.000000" stroke="none" 
	d="
M347.916870,228.554428 
	C345.804932,226.797089 343.742950,224.578369 341.390442,222.224976 
	C341.075409,221.904724 341.050934,221.719177 340.993134,221.254608 
	C342.474579,209.889252 343.989380,198.802887 345.504181,187.716522 
	C345.968292,187.606079 346.432373,187.495636 346.896484,187.385193 
	C347.572845,190.341431 348.834625,193.300507 348.820312,196.253403 
	C348.768860,206.867752 348.286438,217.480011 347.916870,228.554428 
z"/>
<path fill="#5A646D" opacity="1.000000" stroke="none" 
	d="
M713.464294,871.385925 
	C712.502014,871.991211 711.089661,872.932251 709.676025,872.934143 
	C653.803955,873.008423 597.931885,873.002563 542.059753,872.962830 
	C540.820740,872.961914 539.582092,872.448547 538.215637,871.831421 
	C553.526489,871.595276 568.964966,871.779724 584.403503,871.792969 
	C620.303650,871.823730 656.203796,871.796021 692.103821,871.733032 
	C699.074036,871.720764 706.043701,871.440308 713.464294,871.385925 
z"/>
<path fill="#3B454E" opacity="1.000000" stroke="none" 
	d="
M280.626556,777.231812 
	C281.407135,778.863770 281.725220,780.419739 282.090759,782.314758 
	C263.569611,781.778198 245.000977,780.902466 226.432373,780.026794 
	C226.434525,779.776917 226.436676,779.527039 226.438843,779.277100 
	C244.347244,778.570007 262.255646,777.862854 280.626556,777.231812 
z"/>
<path fill="#19334B" opacity="1.000000" stroke="none" 
	d="
M933.044189,213.708954 
	C931.253296,215.873627 929.482056,217.776230 927.439209,219.844849 
	C926.659119,206.598557 926.150757,193.186234 925.642334,179.773911 
	C926.399414,179.693542 927.156494,179.613174 927.913574,179.532791 
	C929.622803,190.380402 931.332031,201.228012 933.090271,212.501160 
	C933.114136,213.100067 933.088989,213.273468 933.044189,213.708954 
z"/>
<path fill="#19334B" opacity="1.000000" stroke="none" 
	d="
M1059.981445,626.172607 
	C1058.749023,609.511902 1057.526611,593.311096 1056.304199,577.110229 
	C1057.019897,577.056458 1057.735474,577.002625 1058.451050,576.948853 
	C1060.045776,597.023315 1061.640381,617.097778 1063.234985,637.172241 
	C1062.535889,637.249084 1061.836914,637.325867 1061.137817,637.402649 
	C1060.755615,633.812561 1060.373535,630.222534 1059.981445,626.172607 
z"/>
<path fill="#213A4F" opacity="1.000000" stroke="none" 
	d="
M1041.884766,601.508911 
	C1040.765869,589.761169 1039.687378,578.467529 1038.608887,567.173889 
	C1039.115112,567.111572 1039.621216,567.049194 1040.127441,566.986816 
	C1040.784912,572.402893 1041.442505,577.819031 1042.196777,583.675659 
	C1043.554688,599.630188 1044.815918,615.144165 1046.077148,630.658081 
	C1045.557129,630.715210 1045.036987,630.772339 1044.516968,630.829407 
	C1043.653076,621.207275 1042.789307,611.585083 1041.884766,601.508911 
z"/>
<path fill="#173046" opacity="1.000000" stroke="none" 
	d="
M239.015656,612.111938 
	C238.573761,620.092712 238.134735,627.593140 237.695724,635.093506 
	C237.012192,635.049255 236.328659,635.004944 235.645142,634.960693 
	C236.563110,617.330994 237.481094,599.701294 238.399078,582.071594 
	C238.605576,582.091553 238.812057,582.111511 239.018555,582.131470 
	C239.018555,591.964844 239.018555,601.798279 239.015656,612.111938 
z"/>
<path fill="#2F465B" opacity="1.000000" stroke="none" 
	d="
M253.782089,600.537781 
	C254.676056,590.119080 255.601990,580.142700 256.527924,570.166382 
	C257.049805,570.206970 257.571686,570.247620 258.093597,570.288269 
	C257.060486,584.232422 256.027374,598.176636 254.683136,612.553101 
	C253.985214,612.959839 253.598404,612.934204 253.211594,612.908569 
	C253.412415,608.932434 253.613220,604.956299 253.782089,600.537781 
z"/>
<path fill="#173046" opacity="1.000000" stroke="none" 
	d="
M253.129730,613.350281 
	C253.598404,612.934204 253.985214,612.959839 254.663254,612.978516 
	C254.735626,614.435669 254.516785,615.899841 254.211945,617.728760 
	C253.922989,624.396301 253.720047,630.699036 253.517090,637.001831 
	C252.893967,636.966858 252.270844,636.931885 251.647720,636.896912 
	C252.114441,629.195251 252.581161,621.493652 253.129730,613.350281 
z"/>
<path fill="#425E78" opacity="1.000000" stroke="none" 
	d="
M936.843750,734.546997 
	C885.497742,734.985779 834.224609,734.994324 782.234985,734.996399 
	C781.518555,734.989990 781.021057,734.979248 780.979004,734.636353 
	C773.218018,725.262512 765.499817,716.230957 757.779846,707.200928 
	C742.212219,688.991638 726.595459,670.824097 711.105530,652.548950 
	C706.554077,647.179016 702.361633,641.504883 698.308594,635.798584 
	C699.753662,634.749390 701.088989,634.035706 701.996765,632.960938 
	C704.051758,630.527771 707.809875,627.603088 707.455383,625.438354 
	C706.514038,619.689636 704.413208,613.878906 701.590393,608.743286 
	C695.953125,598.487183 689.524536,588.666016 683.936340,579.507080 
	C693.025208,569.029114 701.691040,558.727173 710.720398,548.754333 
	C715.593689,543.371765 717.416016,537.165466 716.188110,530.415833 
	C714.630493,521.853882 715.336548,514.076355 720.112122,506.602600 
	C722.512939,502.845398 724.485596,498.691223 725.933716,494.470184 
	C731.974609,476.862396 737.717468,459.152588 743.641541,441.504333 
	C744.430725,439.153168 745.166260,436.509277 746.766785,434.777283 
	C748.610779,432.781799 751.221313,431.180817 753.802734,430.261841 
	C756.879272,429.166595 760.278320,428.977173 763.537659,428.395355 
	C763.517822,428.095062 763.498047,427.794769 763.478210,427.494476 
	C761.868042,427.173279 760.257812,426.852081 758.647644,426.530884 
	C758.663757,426.095123 758.679932,425.659393 758.696045,425.223633 
	C762.197754,425.223633 765.699463,425.223633 770.100891,425.223633 
	C768.633911,424.086243 767.881409,423.502777 767.048218,422.856750 
	C768.084534,422.126587 768.840027,421.594299 770.519287,420.411163 
	C765.961853,420.627258 762.487854,420.791992 759.013794,420.956726 
	C773.832397,403.311859 788.679810,385.691132 803.461365,368.015228 
	C818.242188,350.340179 832.903992,332.565369 847.716736,314.917236 
	C860.828796,299.295319 874.061707,283.774689 887.272888,268.236237 
	C891.876221,262.821930 896.574097,257.488037 901.554688,252.074677 
	C904.858093,278.097565 907.471191,304.211273 910.904968,330.216644 
	C915.250916,363.130035 919.779236,396.034180 925.108337,428.799316 
	C932.392883,473.586761 941.696655,517.939270 955.606079,561.260559 
	C957.611938,567.507751 956.424805,575.038635 955.679565,581.862427 
	C953.372986,602.984924 950.587830,624.055420 947.947632,645.140991 
	C945.080627,668.038513 942.152710,690.928467 939.284241,713.825806 
	C938.437805,720.582275 937.702698,727.352722 936.843750,734.546997 
z"/>
<path fill="#425E79" opacity="1.000000" stroke="none" 
	d="
M496.974121,733.999146 
	C496.974152,733.999146 496.477509,734.010986 496.229309,734.025574 
	C445.411102,734.025513 394.841064,734.010864 343.841003,733.982300 
	C339.910065,705.112244 336.447571,676.251587 332.896790,647.401672 
	C329.711334,621.519836 326.436066,595.648926 323.180359,569.775757 
	C322.755707,566.401062 323.911194,563.722717 325.274078,560.546265 
	C329.182129,551.437988 332.876587,541.994812 334.776489,532.314636 
	C340.051971,505.435974 344.725891,478.425323 348.969055,451.362030 
	C352.698395,427.576080 355.711761,403.671875 358.693298,379.776489 
	C361.387756,358.181915 363.634644,336.531158 366.035309,314.900360 
	C368.069489,296.571594 370.041382,278.235931 372.094360,259.472076 
	C376.993469,264.177063 382.009613,269.164490 386.648621,274.480957 
	C395.903503,285.087402 404.950623,295.875061 414.084991,306.586700 
	C425.154297,319.567352 436.206482,332.562714 447.302094,345.520844 
	C454.199890,353.576447 461.194702,361.549011 468.092194,369.604889 
	C479.187256,382.563293 490.205841,395.587250 501.317230,408.531555 
	C510.491547,419.219208 519.788391,429.801697 528.966736,440.485901 
	C538.140015,451.164246 547.196411,461.942963 556.372620,472.618744 
	C565.554077,483.300629 574.882874,493.856293 584.020081,504.575592 
	C587.937256,509.171051 591.533081,514.040344 594.678833,518.886841 
	C592.020386,518.812378 589.246521,517.716370 588.041321,518.648560 
	C585.395447,520.695129 583.543396,523.768005 580.993103,526.878174 
	C580.905823,526.860535 579.914368,526.750854 578.980347,526.458008 
	C561.378967,520.938354 543.618042,516.521240 525.140686,514.579590 
	C512.814453,513.284424 501.357361,508.766449 493.271179,498.053650 
	C490.771271,494.741638 486.734161,492.478516 483.137115,490.141052 
	C480.216095,488.242950 477.097137,486.576538 473.891449,490.376312 
	C470.900818,493.921204 473.279205,496.564911 475.230713,498.657990 
	C479.375092,503.103210 483.727295,507.517731 488.649933,511.024445 
	C492.849487,514.016052 497.897980,515.877197 502.694336,517.953308 
	C507.983643,520.242737 513.592163,521.845947 518.743042,524.392517 
	C527.827698,528.883972 536.197144,535.452148 545.718750,538.291504 
	C562.699951,543.355408 578.222656,551.528625 594.470398,558.115051 
	C597.792664,559.461914 599.196289,561.210083 599.034912,565.117004 
	C598.749451,572.023621 600.290283,573.471741 606.916077,575.157166 
	C607.675293,575.350342 608.355042,575.903564 609.037231,576.343201 
	C613.426086,579.171265 617.805237,582.014221 621.872070,585.014771 
	C618.459473,588.625854 615.259949,591.988586 612.283691,595.538513 
	C601.113220,608.861816 590.063599,622.286560 578.877380,635.596558 
	C567.473206,649.165894 555.917419,662.607788 544.509277,676.173889 
	C532.999207,689.861206 521.550354,703.600586 510.154297,717.382996 
	C505.650238,722.830200 501.361115,728.455139 496.974121,733.999146 
z"/>
<path fill="#0B141C" opacity="1.000000" stroke="none" 
	d="
M622.187622,584.852295 
	C617.805237,582.014221 613.426086,579.171265 609.037231,576.343201 
	C608.355042,575.903564 607.675293,575.350342 606.916077,575.157166 
	C600.290283,573.471741 598.749451,572.023621 599.034912,565.117004 
	C599.196289,561.210083 597.792664,559.461914 594.470398,558.115051 
	C578.222656,551.528625 562.699951,543.355408 545.718750,538.291504 
	C536.197144,535.452148 527.827698,528.883972 518.743042,524.392517 
	C513.592163,521.845947 507.983643,520.242737 502.694336,517.953308 
	C497.897980,515.877197 492.849487,514.016052 488.649933,511.024445 
	C483.727295,507.517731 479.375092,503.103210 475.230713,498.657990 
	C473.279205,496.564911 470.900818,493.921204 473.891449,490.376312 
	C477.097137,486.576538 480.216095,488.242950 483.137115,490.141052 
	C486.734161,492.478516 490.771271,494.741638 493.271179,498.053650 
	C501.357361,508.766449 512.814453,513.284424 525.140686,514.579590 
	C543.618042,516.521240 561.378967,520.938354 578.980347,526.458008 
	C579.914368,526.750854 580.905823,526.860535 580.993103,526.878174 
	C583.543396,523.768005 585.395447,520.695129 588.041321,518.648560 
	C589.246521,517.716370 592.020386,518.812378 594.453369,519.070007 
	C605.499146,520.847900 613.401306,527.622559 622.230835,533.111328 
	C632.267639,539.350586 643.046509,545.740051 656.979431,543.075439 
	C660.393921,543.095154 663.015076,543.578491 665.333679,542.948303 
	C667.070435,542.476318 669.585571,540.676270 669.711853,539.282471 
	C670.046448,535.589050 669.273071,531.795288 668.940552,528.041443 
	C668.466492,514.446533 658.680847,507.128967 649.586914,499.348694 
	C649.209778,499.026001 648.725220,498.827087 648.354980,498.498108 
	C632.341980,484.268280 616.335083,470.031555 600.332031,455.790558 
	C599.088745,454.684174 597.797852,453.615875 596.666138,452.402130 
	C590.785645,446.095459 584.075195,448.214233 577.363647,450.460785 
	C576.085876,450.888489 574.886597,451.550812 573.651123,452.104858 
	C573.350708,451.671906 573.050293,451.238922 572.749878,450.805969 
	C574.291199,449.445068 575.832581,448.084167 577.548340,446.569305 
	C576.158569,443.543335 573.875000,443.966125 571.072144,444.645874 
	C568.541748,445.259521 565.807129,445.030670 562.874329,444.272949 
	C564.310852,443.687225 565.747375,443.101532 567.166260,442.523010 
	C566.144287,441.812561 565.113220,441.095764 564.082092,440.378967 
	C564.153015,439.956543 564.223938,439.534119 564.294800,439.111694 
	C569.395142,439.547699 574.543396,440.654907 579.586792,440.294525 
	C595.050537,439.189606 604.455322,450.869476 616.559998,456.891754 
	C626.792236,461.982483 634.010010,470.593842 642.826843,477.294281 
	C649.798950,482.592773 657.359436,487.126038 664.733582,491.882965 
	C669.468201,494.937164 674.521484,497.526154 679.086792,500.804382 
	C682.372742,503.163879 683.335815,501.101227 685.503601,498.262695 
	C680.470215,496.001404 676.072510,493.300598 671.295898,492.065948 
	C665.509705,490.570404 661.626953,482.665497 664.916016,477.550659 
	C665.617798,476.459167 666.064148,475.179901 666.493469,473.940491 
	C670.180908,463.294098 680.173096,456.668427 691.267944,458.194946 
	C693.620544,458.518646 696.493469,460.594879 697.660461,462.683044 
	C699.345276,465.697937 700.980225,467.651459 704.273010,469.303833 
	C707.012024,470.678375 708.379578,474.785889 710.677368,478.220093 
	C709.574768,480.463348 708.316467,482.351013 706.694397,483.843170 
	C700.459595,489.578522 699.650085,497.191040 704.841370,504.667664 
	C714.705688,492.723816 720.698242,479.160828 723.312073,464.038025 
	C728.238708,454.318665 732.773438,444.368591 738.289734,434.996307 
	C740.421936,431.373596 744.569275,428.757935 748.187805,426.243774 
	C751.270813,424.101685 754.912109,422.763031 758.660095,421.012817 
	C762.487854,420.791992 765.961853,420.627258 770.519287,420.411163 
	C768.840027,421.594299 768.084534,422.126587 767.048218,422.856750 
	C767.881409,423.502777 768.633911,424.086243 770.100891,425.223633 
	C765.699463,425.223633 762.197754,425.223633 758.696045,425.223633 
	C758.679932,425.659393 758.663757,426.095123 758.647644,426.530884 
	C760.257812,426.852081 761.868042,427.173279 763.478210,427.494476 
	C763.498047,427.794769 763.517822,428.095062 763.537659,428.395355 
	C760.278320,428.977173 756.879272,429.166595 753.802734,430.261841 
	C751.221313,431.180817 748.610779,432.781799 746.766785,434.777283 
	C745.166260,436.509277 744.430725,439.153168 743.641541,441.504333 
	C737.717468,459.152588 731.974609,476.862396 725.933716,494.470184 
	C724.485596,498.691223 722.512939,502.845398 720.112122,506.602600 
	C715.336548,514.076355 714.630493,521.853882 716.188110,530.415833 
	C717.416016,537.165466 715.593689,543.371765 710.720398,548.754333 
	C701.691040,558.727173 693.025208,569.029114 683.936340,579.507080 
	C689.524536,588.666016 695.953125,598.487183 701.590393,608.743286 
	C704.413208,613.878906 706.514038,619.689636 707.455383,625.438354 
	C707.809875,627.603088 704.051758,630.527771 701.996765,632.960938 
	C701.088989,634.035706 699.753662,634.749390 698.020386,635.599121 
	C695.522888,632.674744 692.795288,632.809692 690.135010,633.955017 
	C685.122009,636.113281 683.280640,633.721680 682.489075,629.191772 
	C681.659485,624.443787 679.784485,620.661926 674.090881,620.293335 
	C673.275696,620.240540 671.842102,618.488708 671.923889,617.641846 
	C672.490112,611.777588 668.598572,610.036133 664.503906,608.508728 
	C663.414307,616.578369 662.620178,624.486023 661.214233,632.283447 
	C659.892822,639.612305 657.772705,646.793823 656.289368,654.098022 
	C655.042480,660.237488 652.890259,666.576904 653.426086,672.625122 
	C655.283569,693.591553 656.806763,714.681641 663.054077,735.431885 
	C663.352112,744.249084 660.847473,751.901306 657.222534,759.299194 
	C655.674316,762.458862 653.506042,763.890198 650.009949,762.509155 
	C649.940491,762.166931 649.871033,761.824646 649.701538,761.352295 
	C649.409485,758.134888 648.483093,754.871765 649.171631,751.995300 
	C650.818604,745.114746 649.070496,739.732178 643.386353,734.760376 
	C643.309692,732.127258 642.836182,729.236267 644.029114,728.108948 
	C647.784912,724.560181 648.238037,720.922607 646.277954,716.452881 
	C645.214478,714.027771 644.622375,711.398743 643.602661,708.951233 
	C637.330383,693.896240 632.956299,678.563049 635.940186,661.983337 
	C636.638855,658.101013 637.368896,654.134216 637.292603,650.221680 
	C637.143677,642.591919 636.426147,634.973572 635.960693,627.349548 
	C635.283447,616.257202 634.727722,605.155396 633.834961,594.080627 
	C633.703857,592.454285 632.342346,590.463623 630.954102,589.500793 
	C628.255371,587.629089 625.133972,586.366943 622.187622,584.852295 
z"/>
<path fill="#425E78" opacity="1.000000" stroke="none" 
	d="
M722.966003,464.137634 
	C720.698242,479.160828 714.705688,492.723816 704.841370,504.667664 
	C699.650085,497.191040 700.459595,489.578522 706.694397,483.843170 
	C708.316467,482.351013 709.574768,480.463348 710.987671,478.395294 
	C714.856750,473.434570 718.738342,468.835907 722.966003,464.137634 
z"/>
<path fill="#425E78" opacity="1.000000" stroke="none" 
	d="
M668.677429,528.231873 
	C669.273071,531.795288 670.046448,535.589050 669.711853,539.282471 
	C669.585571,540.676270 667.070435,542.476318 665.333679,542.948303 
	C663.015076,543.578491 660.393921,543.095154 657.445984,543.051880 
	C660.797607,538.149841 664.605957,533.286072 668.677429,528.231873 
z"/>
<path fill="#2F465C" opacity="1.000000" stroke="none" 
	d="
M1009.148865,739.648987 
	C1006.235046,739.765747 1003.462158,739.533386 1000.314819,739.133362 
	C1002.634583,726.842834 1004.700500,714.538208 1008.145264,702.632507 
	C1017.127502,671.588135 1014.131653,639.863159 1013.683655,608.392151 
	C1013.332275,583.706909 1010.588074,559.056519 1008.935730,534.388733 
	C1007.915344,519.155884 1006.907959,503.921875 1005.967773,488.683868 
	C1004.587891,466.319275 1003.196533,443.954926 1001.953857,421.582458 
	C1000.848755,401.687347 999.799622,381.787048 998.991455,361.878235 
	C998.425049,347.923279 998.301331,333.950317 997.991882,319.985107 
	C997.952698,318.218933 997.986572,316.451141 997.986572,314.684082 
	C998.444153,314.630493 998.901672,314.576874 999.359253,314.523254 
	C999.878967,317.393433 1000.583984,320.244019 1000.889465,323.136810 
	C1003.656921,349.345306 1006.469971,375.549896 1009.037170,401.778381 
	C1011.201233,423.888824 1013.165649,446.020416 1015.019104,468.159302 
	C1017.150024,493.613129 1019.119751,519.080933 1021.049744,544.550964 
	C1022.478882,563.410339 1023.696838,582.285706 1025.076782,601.148926 
	C1025.972290,613.389099 1027.205200,625.607971 1027.905640,637.858215 
	C1029.193726,660.388123 1023.690674,682.023315 1018.570496,703.660278 
	C1015.744202,715.603394 1012.400330,727.424011 1009.148865,739.648987 
z"/>
<path fill="#2F465B" opacity="1.000000" stroke="none" 
	d="
M979.847534,737.667236 
	C977.735962,738.030334 975.715210,737.987183 973.248047,737.897217 
	C982.052551,688.163452 988.031433,638.042664 993.139587,587.782043 
	C995.180176,638.160889 990.705322,687.979553 979.847534,737.667236 
z"/>
<path fill="#30485D" opacity="1.000000" stroke="none" 
	d="
M299.018372,736.565796 
	C296.256989,737.539062 293.493652,738.088379 290.407715,738.815063 
	C287.245544,727.055359 284.638855,715.057068 281.520935,703.193237 
	C273.488586,672.630066 269.320923,641.700867 271.022675,610.017578 
	C272.092316,590.103210 272.386322,570.147949 273.111206,550.213989 
	C273.702911,533.941650 274.378143,517.671936 275.087067,501.404175 
	C276.056274,479.164276 277.018158,456.923615 278.123901,434.690277 
	C278.989777,417.279907 279.992004,399.875336 281.073608,382.476929 
	C282.430237,360.654694 283.929810,338.841339 286.074707,316.896210 
	C286.377808,318.568451 286.913940,320.235901 286.948547,321.913666 
	C287.353424,341.543365 287.844818,361.173401 287.987823,380.805756 
	C288.138306,401.463043 288.047791,422.123932 287.856537,442.781342 
	C287.676300,462.248505 287.241058,481.713409 286.893494,501.178864 
	C286.575714,518.978027 286.229553,536.776672 285.887695,554.575500 
	C285.565033,571.375610 284.946869,588.176208 284.980316,604.975525 
	C285.016266,623.050354 284.696381,641.210693 286.314423,659.173096 
	C287.855865,676.285156 291.677734,693.193237 294.532379,710.185059 
	C295.987091,718.844055 297.519257,727.490051 299.018372,736.565796 
z"/>
<path fill="#60686F" opacity="1.000000" stroke="none" 
	d="
M649.547668,762.597778 
	C653.506042,763.890198 655.674316,762.458862 657.222534,759.299194 
	C660.847473,751.901306 663.352112,744.249084 663.513245,735.436523 
	C703.026733,734.988464 742.023865,734.983887 781.021057,734.979248 
	C781.021057,734.979248 781.518555,734.989990 781.767334,734.999756 
	C791.110291,745.717285 800.204468,756.425110 809.694519,767.599060 
	C804.422424,768.091553 799.604736,768.807983 794.771606,768.934021 
	C786.456909,769.150940 778.132141,768.939148 769.812561,769.014038 
	C735.739990,769.320740 701.668091,769.888306 667.595459,769.927795 
	C642.010193,769.957458 616.422424,769.420593 590.839050,768.956421 
	C575.754944,768.682739 560.677124,768.058960 545.300659,767.298950 
	C579.698364,765.565735 614.391907,764.126099 649.547668,762.597778 
z"/>
<path fill="#546D86" opacity="1.000000" stroke="none" 
	d="
M621.872070,585.014771 
	C625.133972,586.366943 628.255371,587.629089 630.954102,589.500793 
	C632.342346,590.463623 633.703857,592.454285 633.834961,594.080627 
	C634.727722,605.155396 635.283447,616.257202 635.960693,627.349548 
	C636.426147,634.973572 637.143677,642.591919 637.292603,650.221680 
	C637.368896,654.134216 636.638855,658.101013 635.940186,661.983337 
	C632.956299,678.563049 637.330383,693.896240 643.602661,708.951233 
	C644.622375,711.398743 645.214478,714.027771 646.277954,716.452881 
	C648.238037,720.922607 647.784912,724.560181 644.029114,728.108948 
	C642.836182,729.236267 643.309692,732.127258 643.118896,734.564941 
	C602.405640,734.942261 561.594116,735.016052 520.782776,734.944519 
	C513.160339,734.931091 505.538910,734.334473 497.445557,734.003052 
	C501.361115,728.455139 505.650238,722.830200 510.154297,717.382996 
	C521.550354,703.600586 532.999207,689.861206 544.509277,676.173889 
	C555.917419,662.607788 567.473206,649.165894 578.877380,635.596558 
	C590.063599,622.286560 601.113220,608.861816 612.283691,595.538513 
	C615.259949,591.988586 618.459473,588.625854 621.872070,585.014771 
z"/>
<path fill="#546D86" opacity="1.000000" stroke="none" 
	d="
M780.979004,734.636353 
	C742.023865,734.983887 703.026733,734.988464 663.570435,734.988403 
	C656.806763,714.681641 655.283569,693.591553 653.426086,672.625122 
	C652.890259,666.576904 655.042480,660.237488 656.289368,654.098022 
	C657.772705,646.793823 659.892822,639.612305 661.214233,632.283447 
	C662.620178,624.486023 663.414307,616.578369 664.503906,608.508728 
	C668.598572,610.036133 672.490112,611.777588 671.923889,617.641846 
	C671.842102,618.488708 673.275696,620.240540 674.090881,620.293335 
	C679.784485,620.661926 681.659485,624.443787 682.489075,629.191772 
	C683.280640,633.721680 685.122009,636.113281 690.135010,633.955017 
	C692.795288,632.809692 695.522888,632.674744 697.716492,635.770752 
	C702.361633,641.504883 706.554077,647.179016 711.105530,652.548950 
	C726.595459,670.824097 742.212219,688.991638 757.779846,707.200928 
	C765.499817,716.230957 773.218018,725.262512 780.979004,734.636353 
z"/>
</svg>